<?xml version="1.0" standalone="no"?>
<!DOCTYPE svg PUBLIC "-//W3C//DTD SVG 20010904//EN"
 "http://www.w3.org/TR/2001/REC-SVG-20010904/DTD/svg10.dtd">
<svg version="1.0" xmlns="http://www.w3.org/2000/svg"
 width="500.000000pt" height="500.000000pt" viewBox="0 0 500.000000 500.000000"
 preserveAspectRatio="xMidYMid meet">
<metadata>
Created by potrace 1.14, written by Peter Selinger 2001-2017
</metadata>
<g transform="translate(0.000000,500.000000) scale(0.100000,-0.100000)"
fill="#000000" stroke="none">
<path d="M0 2500 l0 -2500 2500 0 2500 0 0 2500 0 2500 -2500 0 -2500 0 0
-2500z m2526 1981 c78 -36 145 -131 180 -258 9 -33 18 -116 21 -193 5 -126 4
-140 -18 -189 -12 -30 -52 -90 -87 -135 -35 -45 -74 -101 -87 -126 -46 -90
-46 -120 -20 -723 50 -1166 49 -1132 35 -1167 -15 -36 -63 -70 -98 -70 -42 0
-90 27 -108 62 -16 31 -16 53 -5 308 56 1301 60 1431 50 1484 -15 82 -30 113
-107 212 -109 141 -116 158 -120 299 -4 140 12 235 57 330 72 154 191 219 307
166z m-446 -538 l0 -48 -103 -52 c-381 -194 -604 -601 -558 -1018 42 -370 250
-663 585 -825 56 -27 134 -56 174 -66 l72 -18 0 -47 0 -46 -45 8 c-188 35
-404 155 -561 313 -136 136 -227 288 -278 468 -142 494 61 1013 499 1279 62
37 189 98 208 99 4 0 7 -21 7 -47z m908 -29 c572 -319 754 -1053 397 -1599
-147 -225 -390 -401 -646 -470 -52 -14 -95 -25 -96 -25 -2 0 -3 22 -3 48 l0
48 73 18 c88 22 212 79 304 138 222 145 379 377 440 652 21 97 21 306 -2 411
-65 312 -272 578 -557 717 l-88 43 0 41 c0 22 3 43 6 47 8 8 96 -27 172 -69z
m138 -415 c-16 -142 -78 -264 -179 -354 -87 -79 -223 -135 -327 -135 l-46 0 7
68 c20 206 158 382 354 450 76 27 89 29 149 31 l49 1 -7 -61z m-1207 -186
c218 -60 375 -251 394 -480 l4 -53 -36 0 c-61 0 -161 29 -233 67 -144 75 -254
230 -278 391 -7 40 -9 80 -6 87 6 17 68 12 155 -12z m1236 -530 c-16 -137 -65
-243 -155 -333 -98 -99 -232 -160 -351 -160 l-46 0 4 53 c22 266 253 493 507
496 l48 1 -7 -57z m-1280 -188 c228 -58 398 -256 407 -472 l3 -67 -49 3 c-255
14 -474 229 -494 484 l-5 67 40 0 c21 0 66 -7 98 -15z m1691 -1417 c35 -75 64
-139 64 -142 0 -3 -32 -6 -70 -6 -65 0 -71 2 -82 25 -11 24 -16 25 -89 25 -74
0 -77 -1 -83 -25 -4 -14 -13 -25 -21 -25 -18 0 -19 12 -3 28 9 9 9 15 0 24
-17 17 -15 28 6 28 13 0 31 32 72 133 29 72 60 148 68 167 l15 35 30 -65 c16
-36 58 -127 93 -202z m-2823 237 c36 -15 54 -32 44 -42 -3 -3 -26 4 -50 16
-24 11 -60 21 -80 21 l-37 0 0 -180 0 -180 49 0 c35 0 58 7 84 25 38 25 60 19
29 -7 -54 -47 -156 -56 -234 -21 -81 37 -123 133 -104 236 9 47 71 115 121
132 53 19 134 19 178 0z m307 -40 l0 -55 70 0 70 0 0 56 c0 71 24 70 28 -2 2
-27 9 -52 15 -56 9 -6 9 -10 0 -16 -8 -5 -13 -49 -15 -137 -2 -92 -7 -130 -15
-133 -10 -3 -13 28 -13 132 l0 136 -70 0 -70 0 0 -135 0 -135 -70 0 -70 0 0
200 0 200 70 0 70 0 0 -55z m568 37 c3 -9 -11 -12 -55 -10 l-58 3 -3 -42 -3
-43 50 0 c28 0 51 -4 51 -10 0 -5 -22 -10 -50 -10 l-50 0 0 -125 0 -125 60 0
c34 0 60 -4 60 -10 0 -7 -47 -10 -132 -8 l-133 3 -3 185 c-1 101 0 190 3 197
7 19 256 14 263 -5z m379 1 c3 -9 -12 -11 -54 -10 l-58 2 -3 -42 -3 -43 50 0
c28 0 51 -4 51 -10 0 -5 -22 -10 -50 -10 l-50 0 0 -125 0 -125 60 0 c33 0 60
-4 60 -10 0 -6 -52 -10 -135 -10 l-135 0 0 193 c0 107 3 197 7 201 12 12 256
2 260 -11z m330 -6 c24 -24 10 -31 -27 -12 -41 21 -94 16 -98 -9 -3 -12 22
-42 78 -95 90 -84 107 -119 86 -181 -27 -82 -165 -112 -252 -55 -19 12 -23 20
-15 28 7 7 16 5 30 -7 11 -10 40 -21 65 -23 110 -13 129 29 44 99 -91 75 -125
114 -132 152 -8 44 13 89 52 111 36 21 146 16 169 -8z m423 8 c0 -14 -10 -15
-60 -9 l-60 7 0 -47 0 -46 50 0 c28 0 50 -4 50 -10 0 -5 -22 -10 -50 -10 l-50
0 0 -125 0 -125 60 0 c33 0 60 -4 60 -10 0 -6 -50 -10 -130 -10 l-130 0 0 200
0 200 130 0 c111 0 130 -2 130 -15z m391 4 c19 -7 40 -18 48 -25 26 -24 3 -27
-42 -5 -24 11 -60 21 -80 21 l-37 0 0 -180 0 -180 48 0 c34 0 58 7 84 25 38
26 61 20 30 -7 -33 -29 -64 -39 -125 -41 -124 -3 -207 67 -215 183 -5 73 9
118 52 159 57 55 157 76 237 50z m739 -44 c0 -30 3 -55 7 -55 7 0 103 71 126
94 17 17 37 21 37 7 0 -5 -20 -25 -44 -45 l-44 -36 55 -133 c61 -146 72 -182
54 -176 -7 3 -38 68 -69 147 -31 78 -60 142 -63 142 -4 0 -18 -9 -33 -21 -26
-20 -26 -22 -26 -145 l0 -124 -70 0 -70 0 0 200 0 200 70 0 70 0 0 -55z m568
37 c3 -10 -9 -13 -54 -10 l-59 3 -3 -42 -3 -43 50 0 c28 0 51 -4 51 -10 0 -5
-22 -10 -50 -10 l-50 0 0 -125 0 -125 60 0 c33 0 60 -4 60 -10 0 -6 -52 -10
-135 -10 l-135 0 0 193 c0 107 3 197 7 201 4 3 63 5 132 4 92 -2 126 -6 129
-16z"/>
<path d="M3356 1175 c-14 -36 -26 -67 -26 -70 0 -3 27 -5 60 -5 33 0 60 2 60
5 0 10 -59 135 -63 135 -3 0 -17 -29 -31 -65z"/>
</g>
</svg>
